<?xml version="1.0" encoding="utf-8"?>
<!-- Generator: Adobe Illustrator 16.0.0, SVG Export Plug-In . SVG Version: 6.00 Build 0)  -->
<!DOCTYPE svg PUBLIC "-//W3C//DTD SVG 1.1//EN" "http://www.w3.org/Graphics/SVG/1.1/DTD/svg11.dtd">
<svg version="1.1" id="Layer_1" xmlns="http://www.w3.org/2000/svg" xmlns:xlink="http://www.w3.org/1999/xlink" x="0px" y="0px"
	 width="15px" height="16.558px" viewBox="0 0 15 16.558" enable-background="new 0 0 15 16.558" xml:space="preserve">
<g>
	<path fill="#EDAA3D" d="M4.413,1.786C5.455,1.47,6.559,2.008,7.625,2.03c1.019,0.021,2.087-0.428,3.078-0.159
		C9.689,1.146,8.848,0.048,7.5,0.048C6.205,0.048,5.376,1.063,4.413,1.786z"/>
	<path fill="#008BC7" d="M0.313,7.718C0.561,6.657,1.58,5.97,2.131,5.057c0.526-0.871,0.673-2.022,1.4-2.745
		c-1.134,0.516-2.506,0.696-3.18,1.863C-0.296,5.297,0.169,6.522,0.313,7.718z"/>
	<path fill="#008BC7" d="M11.6,2.37c0.795,0.745,0.879,1.97,1.395,2.905c0.492,0.892,1.416,1.594,1.678,2.585
		c0.121-1.24,0.65-2.519-0.023-3.686C14,3.053,12.707,2.843,11.6,2.37z"/>
	<path fill="#EDAA3D" d="M3.4,14.233c-0.795-0.744-0.88-1.97-1.395-2.905c-0.491-0.891-1.415-1.593-1.677-2.585
		c-0.121,1.239-0.651,2.52,0.023,3.687C1,13.553,2.293,13.763,3.4,14.233z"/>
	<path fill="#008BC7" d="M10.588,14.816c-1.043,0.319-2.146-0.221-3.214-0.243c-1.018-0.02-2.088,0.43-3.078,0.16
		c1.014,0.727,1.856,1.824,3.203,1.824C8.797,16.558,9.623,15.541,10.588,14.816z"/>
	<path fill="#EDAA3D" d="M14.688,8.888c-0.248,1.06-1.268,1.748-1.818,2.66c-0.527,0.87-0.674,2.021-1.4,2.743
		c1.135-0.515,2.506-0.694,3.18-1.861C15.297,11.308,14.83,10.082,14.688,8.888z"/>
</g>
</svg>
